Coordinates
version=1
nRows=14
nColumns=36
inDegrees=yes

Units are S.I. units (second, meters, Newtons, ...)
If the header above contains a line with 'inDegrees', this indicates whether rotational values are in degrees (yes) or radians (no).

endheader
time	pelvis_tilt	pelvis_list	pelvis_rotation	pelvis_tx	pelvis_ty	pelvis_tz	hip_flexion_r	hip_adduction_r	hip_rotation_r	knee_angle_r	knee_angle_r_beta	ankle_angle_r	subtalar_angle_r	mtp_angle_r	hip_flexion_l	hip_adduction_l	hip_rotation_l	knee_angle_l	knee_angle_l_beta	ankle_angle_l	subtalar_angle_l	mtp_angle_l	lumbar_extension	lumbar_bending	lumbar_rotation	arm_flex_r	arm_add_r	arm_rot_r	elbow_flex_r	pro_sup_r	arm_flex_l	arm_add_l	arm_rot_l	elbow_flex_l	pro_sup_l
      2.46666670	    -23.11926899	     -1.04435962	      0.78093990	      1.42475055	      0.68372040	      0.10278253	     86.58734394	     -0.62996961	      6.42056815	     87.81837513	      1.53271979	     19.50985280	    -19.35693587	     -7.49999987	     85.65588488	     -6.49529734	      3.30580778	     86.98608353	      1.51819356	     21.98286022	    -14.87374278	     -7.49999987	    -35.68834456	     -1.22041808	      4.57946375	     62.43626743	    -16.32292708	     14.34007700	    115.09332095	     94.97529850	     69.86432749	    -17.01822835	     23.13449563	    118.49360157	     96.21333643
      2.48333330	    -24.72579677	     -0.94790359	      0.89450457	      1.43485212	      0.66604584	      0.11029805	     89.93199105	     -0.61617060	      6.50287388	     91.25661921	      1.59272847	     21.46331172	    -18.76839029	     -7.49999987	     89.04744834	     -6.76293042	      3.64823995	     90.03681665	      1.57143890	     23.83940130	    -14.21167159	     -7.49999987	    -35.73990778	     -1.30969384	      4.67666147	     63.17086555	    -15.40104515	     14.64725039	    116.09721445	     95.93207698	     71.18560884	    -16.38491145	     23.45215991	    118.80220624	     97.19878929
      2.50000000	    -26.27462648	     -0.98962712	      1.31108009	      1.42979615	      0.65556917	      0.10708362	     92.94499829	     -0.88802289	      6.58214848	     93.78758367	      1.63690213	     22.47289814	    -18.51328796	     -7.49999987	     92.08871834	     -6.60634056	      3.87079093	     92.17826357	      1.60881420	     24.85630856	    -13.82873086	     -7.49999987	    -36.65287000	     -1.20044727	      4.72064560	     65.08159817	    -15.24114885	     14.89903558	    116.36286216	     96.08333410	     74.00144493	    -16.19589021	     26.48840703	    118.43565315	     97.69920448
      2.51666670	    -27.80311896	     -1.19690973	      1.60365602	      1.43185261	      0.64064462	      0.11098305	     95.81272047	     -0.98117162	      6.47603383	     96.07163746	      1.67676639	     23.48495608	    -18.26033834	     -7.49999987	     95.06248033	     -6.42935571	      4.32997971	     94.28981637	      1.64566775	     25.50809960	    -13.57611409	     -7.49999987	    -37.14748441	     -1.04607040	      4.80739474	     66.76063583	    -14.52334641	     14.99356564	    117.38364670	     95.77564833	     76.00339199	    -16.88992079	     27.54962457	    118.94593814	     97.45352355
      2.53333330	    -28.99158096	     -1.29792243	      1.78362991	      1.44028191	      0.63253547	      0.11283022	     97.87187441	     -0.91495749	      6.55875815	     97.93279137	      1.70924966	     24.22975957	    -18.50483352	     -7.49999987	     97.12415565	     -6.29285876	      4.74895085	     96.09165339	      1.67711574	     25.98065721	    -13.55425599	     -7.49999987	    -37.66010355	     -1.14290644	      5.28986249	     69.15960952	    -13.60165041	     15.23470599	    117.47553439	     95.78510793	     77.16726209	    -16.03886955	     27.98997632	    119.18397565	     97.50681839
      2.55000000	    -30.39745927	     -1.59217443	      1.76347222	      1.44637516	      0.61973168	      0.11163640	     99.97820540	     -0.83088002	      6.40019767	     99.65879971	      1.73937418	     25.42616234	    -17.89269436	     -7.49999987	     99.30272664	     -6.27066485	      5.35790796	     98.04307450	      1.71117446	     27.00333676	    -12.64772552	     -7.49999987	    -37.79215965	     -1.03700831	      5.82239179	     71.42733658	    -15.17229314	     17.93009455	    118.65597016	     95.63295728	     78.68697949	    -15.85278026	     29.21903372	    121.22095431	     97.82845973
      2.56666670	    -31.67194660	     -1.95409142	      1.86225224	      1.44980077	      0.61348483	      0.11537862	    101.59381288	     -0.76277765	      6.15293796	    100.88986971	      1.76086041	     26.36611771	    -17.70825238	     -7.49999987	    101.09848405	     -6.11788945	      6.01732005	     99.51273337	      1.73682484	     27.79877222	    -12.08421773	     -7.49999987	    -37.97097632	     -0.87243700	      6.07267626	     73.04178950	    -15.29857520	     18.38206585	    118.46698065	     95.32038892	     79.36551739	    -16.70983499	     30.32859426	    121.19365410	     98.04350224
      2.58333330	    -32.95530061	     -2.22080554	      2.12027537	      1.44162919	      0.60280598	      0.11886115	    103.63366302	     -0.71901402	      5.95432760	    101.94485865	      1.77927344	     26.69331939	    -17.64629102	     -7.49999987	    103.32952625	     -5.78638499	      6.56796954	    100.80477528	      1.75937523	     27.79138180	    -12.13804446	     -7.49999987	    -37.88786298	     -0.68805735	      6.19351897	     75.62305781	    -15.20802530	     17.96775726	    118.03371113	     95.15289490	     82.20556326	    -16.73476231	     30.33810077	    120.94233898	     98.11989475
      2.60000000	    -34.29010572	     -2.62657121	      2.51591276	      1.43776880	      0.60277734	      0.11574840	    105.43468584	     -1.02034711	      5.63992446	    102.36605238	      1.78662466	     26.91809536	    -17.24235876	     -7.49999987	    105.45411413	     -5.30284710	      6.90068325	    101.34188732	      1.76874960	     27.16183253	    -12.09225623	     -7.49999987	    -38.43190620	     -0.07292297	      6.17716236	     78.22311543	    -15.06661904	     17.64934233	    117.38020953	     94.94728623	     85.11791326	    -16.33368760	     30.42980262	    120.27696556	     98.12229034
      2.61666670	    -35.50966170	     -2.85964561	      2.55037949	      1.44504930	      0.60471006	      0.11808391	    106.52105993	     -1.00242879	      5.42091459	    102.31967621	      1.78581524	     27.42866853	    -17.03631113	     -7.49999987	    106.68180527	     -5.17225451	      7.12500504	    101.36423525	      1.76913965	     26.65282876	    -11.92792406	     -7.49999987	    -38.98988475	      0.14798622	      6.45784226	     80.04423852	    -14.42244539	     17.45316362	    117.12926308	     94.86634414	     86.38711971	    -15.95653626	     30.50444473	    119.52823089	     98.13441859
      2.63333330	    -36.38399576	     -3.37197701	      2.69834107	      1.43999481	      0.60293789	      0.11547774	    107.09865761	     -1.26656984	      4.95880864	    101.96426798	      1.77961220	     27.68494220	    -16.37093218	     -7.49999987	    107.37065414	     -4.87880607	      7.39046566	    101.14837401	      1.76537216	     25.65951829	    -12.04687384	     -7.49999987	    -39.62904173	      0.79238726	      6.91078599	     82.52615856	    -14.18065267	     17.44144925	    116.58519590	     94.74968423	     88.21201364	    -15.14692403	     30.89858672	    118.97797466	     98.19285372
      2.65000000	    -36.98331318	     -3.80748623	      2.88627731	      1.44290865	      0.60517770	      0.11394228	    107.00701499	     -1.46860256	      4.67849702	    101.32077002	      1.76838104	     28.16751792	    -15.90487409	     -7.49999987	    107.34561374	     -4.48594515	      7.56355129	    100.54749334	      1.75488481	     24.54347363	    -12.43987963	     -7.49999987	    -40.44924195	      1.30407452	      7.45406275	     84.06450495	    -14.78751911	     17.79057898	    116.13174700	     92.68243336	     88.98896536	    -14.37349792	     31.69662771	    118.97071275	     96.73669595
      2.66666670	    -37.55741625	     -3.80980098	      2.76850843	      1.45233072	      0.60790409	      0.10860575	    106.64856745	     -1.51829215	      4.75415325	    100.71346047	      1.75778149	     28.42812455	    -15.86743640	     -7.49999987	    106.76617907	     -4.26058561	      7.48904292	     99.94034025	      1.74428799	     24.47016398	    -12.23037828	     -7.49999987	    -40.72589387	      1.52624736	      7.40707480	     83.84648172	    -14.87526520	     17.78351814	    115.98058410	     92.59150683	     88.72244192	    -14.25594593	     31.81560993	    118.89016395	     96.66570607
      2.68333330	    -37.90013522	     -3.92235790	      2.77719891	      1.45423861	      0.60820602	      0.10818203	    106.18860657	     -1.78965588	      4.66693047	    100.45896868	      1.75333977	     29.34309015	    -15.22322674	     -7.49999987	    106.21464448	     -3.95817936	      7.54667187	     99.52864874	      1.73710262	     24.53961474	    -12.05370129	     -7.49999987	    -40.30035905	      1.86754333	      7.61890184	     82.90365793	    -14.16995659	     17.06721810	    112.67509620	     91.39794145	     87.12364688	    -13.90110217	     32.25704875	    116.38784312	     95.61173717
